<svg id="Layer_1" data-name="Layer 1" xmlns="http://www.w3.org/2000/svg" xmlns:xlink="http://www.w3.org/1999/xlink" viewBox="0 0 18.71 19.41"><defs><style>.cls-1,.cls-4{fill:none;}.cls-2{clip-path:url(#clip-path);}.cls-3{fill:url(#linear-gradient);}.cls-4{stroke:#c4c4c4;stroke-miterlimit:10;stroke-width:1.24px;}</style><clipPath id="clip-path"><polygon class="cls-1" points="34.88 -594.61 34.88 7.59 34.88 7.59 312.99 7.59 312.99 7.59 312.99 -594.61 34.88 -594.61"/></clipPath><linearGradient id="linear-gradient" x1="34.88" y1="7.59" x2="35.88" y2="7.59" gradientTransform="matrix(622.47, 0, 0, -622.47, -21850.4, 4429.92)" gradientUnits="userSpaceOnUse"><stop offset="0" stop-color="#5e92f5"/><stop offset="0.57" stop-color="#5e92f5"/><stop offset="1" stop-color="#4527e0"/></linearGradient></defs><g class="cls-2"><rect class="cls-3" x="-137.3" y="-604.74" width="622.47" height="622.47" transform="translate(258.49 37.02) rotate(-45)"/></g><path class="cls-4" d="M1,9.14,8.65,1.48a1.15,1.15,0,0,1,1.61,0L17.7,8.93"/><path class="cls-4" d="M2.63,11V17.1a1.16,1.16,0,0,0,1.16,1.16H14.56a1.16,1.16,0,0,0,1.16-1.16V11"/><path class="cls-4" d="M10.88,11.65H7.83a.8.8,0,0,0-.8.8v5.81h4.65V12.45A.8.8,0,0,0,10.88,11.65Z"/></svg>